<svg width="149" height="19" viewBox="0 0 149 19" fill="none" xmlns="http://www.w3.org/2000/svg">
<path d="M32.6512 0H18.9712V2.83996H31.9839L32.6512 0Z" fill="#E63728"/>
<path d="M32.6512 16.0374H18.9712V18.8774H31.9839L32.6512 16.0374Z" fill="#E63728"/>
<path d="M18.9712 8.01871H27.6463V11.0257H18.9712V8.01871Z" fill="#E63728"/>
<path d="M96.7869 19C95.7198 19 94.743 18.7734 93.8565 18.3202C92.9864 17.867 92.2887 17.2195 91.7634 16.3778C91.2545 15.52 91 14.4922 91 13.2944C91 12.1937 91.1806 11.1821 91.5418 10.2595C91.9193 9.33687 92.4447 8.53566 93.1178 7.85584C93.7908 7.17602 94.5706 6.64997 95.4571 6.27769C96.3601 5.90541 97.3451 5.71927 98.4122 5.71927C99.5121 5.71927 100.456 5.9135 101.244 6.30197C102.048 6.69044 102.656 7.28123 103.066 8.07435C103.477 8.85129 103.666 9.82246 103.633 10.9879C103.6 12.5903 103.304 13.9985 102.746 15.2124C102.188 16.4102 101.408 17.3409 100.407 18.0046C99.4054 18.6682 98.1987 19 96.7869 19ZM97.5749 16.4021C98.4614 16.4021 99.2412 16.1998 99.9143 15.7951C100.587 15.3743 101.121 14.7997 101.515 14.0713C101.909 13.3429 102.106 12.5013 102.106 11.5463C102.106 10.5427 101.802 9.74962 101.195 9.16692C100.587 8.58422 99.7337 8.29287 98.6338 8.29287C97.7637 8.29287 96.9839 8.50329 96.2944 8.92413C95.6213 9.32878 95.0878 9.8953 94.6938 10.6237C94.2998 11.352 94.1028 12.1937 94.1028 13.1487C94.1028 14.1523 94.4065 14.9454 95.0139 15.5281C95.6213 16.1108 96.475 16.4021 97.5749 16.4021ZM100.801 18.83L101.392 15.868L102.229 12.4203L102.648 8.94841L103.263 5.86495H106.341L103.731 18.83H100.801Z" fill="#505050"/>
<path d="M112.049 18.83L109.021 5.86495H112.049L114.66 17.3005H113.108L120.373 5.86495H123.476L115.226 18.83H112.049Z" fill="#505050"/>
<path d="M128.82 19C127.966 19 127.227 18.822 126.603 18.4659C125.996 18.0936 125.553 17.5756 125.274 16.912C125.011 16.2322 124.97 15.431 125.151 14.5083L127.49 3H130.568L128.229 14.4841C128.13 15.083 128.196 15.5685 128.426 15.9408C128.656 16.3131 129.091 16.4992 129.731 16.4992C130.026 16.4992 130.322 16.4588 130.617 16.3778C130.929 16.2807 131.208 16.1512 131.455 15.9894L131.996 18.2231C131.537 18.5144 131.028 18.7167 130.47 18.83C129.911 18.9433 129.361 19 128.82 19ZM124.264 8.38998L124.757 5.96206H133.499L133.006 8.38998H124.264Z" fill="#505050"/>
<path d="M141.169 19C139.889 19 138.764 18.7653 137.796 18.2959C136.843 17.8103 136.105 17.1467 135.579 16.305C135.054 15.4471 134.791 14.4436 134.791 13.2944C134.791 11.8376 135.128 10.5427 135.801 9.40971C136.474 8.2605 137.393 7.36216 138.559 6.71472C139.741 6.05109 141.087 5.71927 142.597 5.71927C143.894 5.71927 145.019 5.95397 145.971 6.42337C146.94 6.87658 147.687 7.53212 148.212 8.38998C148.737 9.23166 149 10.2352 149 11.4006C149 12.8412 148.663 14.1361 147.99 15.2853C147.317 16.4345 146.39 17.3409 145.208 18.0046C144.042 18.6682 142.696 19 141.169 19ZM141.366 16.4021C142.253 16.4021 143.033 16.1998 143.706 15.7951C144.379 15.3743 144.912 14.7997 145.306 14.0713C145.7 13.3429 145.897 12.5013 145.897 11.5463C145.897 10.5427 145.594 9.74962 144.986 9.16692C144.379 8.58422 143.525 8.29287 142.425 8.29287C141.555 8.29287 140.775 8.50329 140.086 8.92413C139.413 9.32878 138.879 9.8953 138.485 10.6237C138.091 11.352 137.894 12.1937 137.894 13.1487C137.894 14.1684 138.198 14.9697 138.805 15.5524C139.413 16.1189 140.266 16.4021 141.366 16.4021Z" fill="#505050"/>
<path d="M0 19V0H7.86348C9.55631 0 11.0034 0.271429 12.2048 0.814286C13.4243 1.35714 14.3618 2.13524 15.0171 3.14857C15.6724 4.16191 16 5.36524 16 6.75857C16 8.1519 15.6724 9.35524 15.0171 10.3686C14.3618 11.3819 13.4243 12.16 12.2048 12.7029C11.0034 13.2457 9.55631 13.5171 7.86348 13.5171H1.96587L3.54949 11.8614V19H0ZM3.54949 12.2414L1.96587 10.5314H7.69966C9.26507 10.5314 10.4391 10.2057 11.2218 9.55429C12.0228 8.88476 12.4232 7.95286 12.4232 6.75857C12.4232 5.54619 12.0228 4.61429 11.2218 3.96286C10.4391 3.31143 9.26507 2.98571 7.69966 2.98571H1.96587L3.54949 1.24857V12.2414Z" fill="#E63728"/>
<path d="M40.126 14.5214L39.9374 10.3414L49.8275 0H53.762L45.5427 8.79428L43.6024 10.9386L40.126 14.5214ZM37 19V0H40.5033V19H37ZM50.1509 19L42.9287 10.3414L45.2462 7.76286L54.247 19H50.1509Z" fill="#E63728"/>
<path d="M56.6324 19V0H60.1357V19H56.6324Z" fill="#E63728"/>
<path d="M65.238 19V0H68.1215L79.9519 14.63H78.5236V0H82V19H79.1165L67.2861 4.37H68.7144V19H65.238Z" fill="#E63728"/>
</svg>
