<svg width="141" height="134" viewBox="0 0 141 134" fill="none" xmlns="http://www.w3.org/2000/svg">
<path fill-rule="evenodd" clip-rule="evenodd" d="M103.262 0.331035C100.043 0.835374 96.3716 2.56078 93.6538 4.84675L92.7011 5.64803L91.7635 5.20591C67.6374 -6.17253 33.4944 2.41958 15.4476 24.4109C-19.7933 67.3543 8.94409 131.577 64.462 133.949C91.6858 135.112 120.61 116.245 128.614 92.1038C131.386 83.742 120.589 81.0012 116.986 89.1521C98.3916 131.217 39.181 133.258 18.1242 92.5595C-3.87649 50.0371 35.0005 1.83947 81.3339 14.1955C83.2721 14.7124 86.093 15.658 86.2921 15.8577C86.3273 15.893 86.2291 16.5409 86.0735 17.2977C84.4188 25.3512 87.6804 33.956 94.015 38.249C106.661 46.8194 110.169 47.3732 113.837 41.3791C114.403 40.4538 114.922 39.6619 114.992 39.619C115.061 39.5764 118.155 41.3747 121.868 43.6155C129.604 48.2841 130.11 48.4546 131.017 46.6963C131.898 44.9883 131.712 44.8136 124.071 40.178C120.342 37.9154 117.257 36.0372 117.218 36.0045C117.116 35.9205 124.425 23.7703 124.581 23.764C124.652 23.7612 127.741 25.597 131.446 27.8437C138.971 32.4071 139.024 32.4277 140.192 31.2571C141.882 29.5632 141.459 29.1204 133.622 24.3788C125.848 19.6754 126.525 20.3036 127.525 18.7156C131.1 13.0434 130.051 10.5534 122.065 5.74715C113.162 0.389067 109.544 -0.653114 103.262 0.331035ZM55.906 41.6368C41.4809 42.598 33.0155 44.6156 30.7185 47.6396C27.6155 51.725 23.3984 58.2351 22.5136 60.3059L21.9821 61.5493L22.0402 68.6288C22.1338 80.0086 23.5459 82.8129 29.2121 82.8701L30.9346 82.8875L31.0566 80.3947C31.8286 64.6144 54.2135 64.756 54.4052 80.5425C54.4187 81.6656 54.5208 82.6757 54.632 82.7872C54.7661 82.9216 60.2069 82.9725 70.8403 82.9385L86.8467 82.8875L86.9613 80.4944C87.7289 64.4724 110.324 64.7163 110.281 80.7461C110.276 82.7551 110.285 82.7948 110.764 82.9156C120.29 85.3117 121.76 66.8081 112.605 59.7475C109.824 57.6025 108.639 57.2402 98.347 55.3854L91.3429 54.123L86.4503 50.1583C77.6598 43.0351 75.9671 42.1674 69.9656 41.7086C67.63 41.5299 58.2287 41.4818 55.906 41.6368ZM70.5934 45.9523C70.6278 46.1304 70.0146 49.2473 69.2304 52.879C68.4462 56.5107 67.8658 59.5433 67.9402 59.6183C68.0147 59.6933 69.5844 59.7828 71.4285 59.8173C74.0152 59.8658 74.8347 59.9445 75.0146 60.1619C75.2084 60.3958 68.3581 71.6532 63.6247 78.8799C62.8489 80.0643 63.0576 78.286 64.4303 72.0132C66.1041 64.3643 66.1942 65.0458 63.5051 65.0145C57.4835 64.9443 57.3824 66.1159 64.3869 54.7913C69.7841 46.065 70.4356 45.1372 70.5934 45.9523ZM40.0849 71.7685C33.4594 74.1372 31.6486 82.3646 36.6991 87.1519C41.925 92.1056 50.3882 89.0933 51.5493 81.8662C52.5879 75.401 46.0448 69.6377 40.0849 71.7685ZM95.8336 71.8251C86.2935 75.1886 88.5169 89.4888 98.5759 89.4628C110.277 89.4325 110.579 71.8756 98.8847 71.4799C97.3709 71.4287 96.7632 71.4975 95.8336 71.8251Z" fill="#27AE60"/>
</svg>
