<svg width="151" height="129" viewBox="0 0 151 129" fill="none" xmlns="http://www.w3.org/2000/svg">
<path fill-rule="evenodd" clip-rule="evenodd" d="M34.4143 0.569688C29.9376 2.01239 23.9747 8.15626 25.0717 10.1962C26.2403 12.3697 27.4946 12.0306 31.0187 8.58834C36.0736 3.65095 37.6922 3.51089 43.3035 7.52568C44.3957 8.30726 45.3667 9.01438 45.4614 9.09714C45.6171 9.23343 9.56864 45.6461 9.27814 45.6461C9.06744 45.6461 5.93488 41.2701 5.36465 40.1792C4.88653 39.2645 4.82222 38.9424 4.81901 37.4457C4.81314 34.6995 4.53853 35.0524 14.278 25.2866C24.0872 15.4508 24.0347 15.523 22.5413 13.9329C20.8393 12.1207 20.705 12.2155 10.6785 22.2933C0.61615 32.4071 0.274202 32.8731 0.0406257 36.792C-0.183683 40.5579 0.290657 41.4734 7.50315 51.1926C14.5084 60.6326 14.1123 60.4006 17.5409 57.0757L19.4893 55.1861L20.6422 56.3353L21.795 57.4843L20.1528 59.3415C7.73237 73.3868 13.1546 93.9224 30.8052 99.6855C33.1719 100.458 33.3624 100.607 33.7632 101.988C35.2599 107.146 38.7583 111.248 43.8096 113.767C45.5842 114.653 45.4648 114.262 45.573 119.544C45.6969 125.59 46.5285 127.339 49.8763 128.597C52.614 129.626 57.8665 127.787 57.8665 125.8C57.8665 124.198 61.1345 124.203 62.0858 125.808C64.5345 129.936 70.6099 130.092 73.2027 126.093C74.6908 123.798 76.451 123.939 78.1453 126.488C80.3628 129.825 86.1665 129.815 88.4941 126.471C89.8052 124.587 89.7401 124.634 91.0733 124.634C92.4235 124.634 92.4681 124.663 93.4802 126.23C96.1539 130.368 102.759 129.743 104.888 125.149L105.433 123.974L105.488 114.805C105.552 104.262 105.313 105.377 107.704 104.495C109.997 103.65 111.288 103.045 112.784 102.115C114.435 101.09 115.345 100.752 117.443 100.384C121.909 99.6018 127.331 96.8626 127.756 95.1739C128.255 93.1938 125.889 91.6789 124.062 92.8083C123.343 93.2528 118.344 95.622 118.275 95.5513C118.251 95.5276 118.437 94.7447 118.688 93.8115C118.938 92.8784 119.144 91.9354 119.144 91.7162C119.145 91.0903 119.772 90.4482 121.163 89.6482C125.912 86.9178 129.073 80.896 128.724 75.2429C128.48 71.288 127.214 68.4965 123.983 64.7899L123.053 63.7228L124.361 62.3715C125.081 61.6284 125.687 60.9867 125.708 60.9454C125.819 60.7297 127.493 62.3191 128.55 63.6436C133.469 69.8063 134.282 78.0943 130.682 85.355C129.332 88.0777 129.205 88.9929 130.067 89.7945C131.896 91.4949 133.152 90.8349 134.919 87.245C139.605 77.7216 137.993 66.738 130.813 59.277L129.326 57.7323L130.429 56.4033L131.533 55.0745L133.289 56.8765C136.854 60.5346 136.501 60.7425 144.032 50.5475C150.55 41.7243 150.978 40.918 150.997 37.4457C151.021 32.8545 151.291 33.1978 134.559 16.5206C119.578 1.58804 119.527 1.5428 116.886 0.645283C112.344 -0.898085 110.272 -0.0597622 100.043 7.46045C90.397 14.5518 90.543 14.2945 94.1624 17.8169C95.108 18.7372 95.8817 19.5371 95.8817 19.5944C95.8817 19.7646 84.9899 30.6326 82.7901 32.6575L80.7626 34.5238H75.7356C70.7374 34.5238 55.2187 23.2291 55.2187 19.5912C55.2187 19.5165 55.9928 18.7114 56.939 17.8024C60.7286 14.1608 61.2062 14.7627 45.573 3.47564C41.1563 0.286538 37.9132 -0.557816 34.4143 0.569688ZM116.231 5.37907C117.9 6.13595 144.902 33.0626 145.741 34.8065C146.997 37.4171 146.493 39.4172 143.598 43.3185L141.898 45.6095L123.67 27.4407C112.086 15.8935 105.51 9.20761 105.627 9.09544C106.089 8.65205 110.226 5.79625 110.909 5.44806C112.635 4.56902 114.395 4.54621 116.231 5.37907ZM51.4493 13.5487C52.2743 14.1435 52.9491 14.6738 52.9491 14.7273C52.9491 14.7808 44.3255 23.4201 33.7853 33.9254L14.6216 53.0259L13.4662 51.4569L12.3108 49.8877L31.0694 31.1776C41.3864 20.887 49.8551 12.4676 49.8886 12.4676C49.9221 12.4676 50.6245 12.9541 51.4493 13.5487ZM120.027 31.1776L138.781 49.8877L137.601 51.4284L136.421 52.9691L117.247 33.8572C106.701 23.3456 98.1212 14.697 98.1802 14.6381C98.4441 14.3752 101.066 12.4676 101.164 12.4676C101.224 12.4676 109.712 20.887 120.027 31.1776ZM51.2475 51.2065L36.8732 65.5338L30.018 58.7011L23.1628 51.8682L24.7263 50.3124L26.2899 48.7566L29.5482 52.0922C34.741 57.4075 37.758 58.145 41.2245 54.9459C44.9877 51.4733 44.4008 48.3764 38.9442 42.9085L35.5521 39.5096L37.5348 37.5402L39.5174 35.5706L42.9708 38.9844C48.2375 44.191 52.0521 44.9296 55.0502 41.3237C58.3367 37.3707 57.036 33.6619 50.3185 27.8315L48.581 26.3234L50.2449 24.7734L51.9089 23.2235L58.7653 30.0513L65.6216 36.8791L51.2475 51.2065ZM98.9266 29.6224C93.6103 34.7817 92.8912 37.8616 96.1607 41.4686C99.2902 44.9215 102.82 44.2098 108.039 39.0739L111.591 35.5787L113.568 37.5423L115.544 39.5058L111.983 43.0944C107.322 47.7907 106.643 49.6372 108.324 53.0396C111.234 58.9302 116.173 57.9938 123.385 50.1842L124.852 48.5958L126.339 50.1842C127.157 51.058 127.831 51.8156 127.836 51.868C127.841 51.9204 124.755 55.0419 120.979 58.8044L114.114 65.6456L99.7695 51.291L85.4251 36.9364L92.3058 30.0761L99.1866 23.2159L100.756 24.7697L102.326 26.3234L98.9266 29.6224ZM49.5921 33.7218C51.0224 35.1645 52.1926 36.4892 52.1926 36.6657C52.1926 37.78 51.1274 38.8596 50.0282 38.8596C49.4712 38.8596 47.6896 37.3411 44.6315 34.26L42.65 32.2633L43.955 30.9526L45.26 29.6416L46.1257 30.3702C46.6019 30.7708 48.1618 32.2791 49.5921 33.7218ZM108.129 32.2631C108.366 32.7389 101.673 38.7653 100.907 38.7653C97.7676 38.7653 98.2292 36.851 102.371 32.6922L105.416 29.6352L106.748 30.9013C107.481 31.5976 108.102 32.2105 108.129 32.2631ZM95.9156 54.1781C113.374 71.4194 111.678 69.3486 110.719 72.2445L109.972 74.5026L102.218 68.9003C78.6608 51.8818 79.8942 52.6315 75.4481 52.624C70.4548 52.6153 70.0968 52.8753 55.5489 67.0706C42.1269 80.1674 42.8219 79.5252 42.5725 79.0607C42.0276 78.0457 39.7217 70.2635 39.8301 69.805C39.9526 69.2864 68.2049 40.8614 69.6796 39.7729L70.4286 39.2202L75.6548 39.2755L80.8812 39.3309L95.9156 54.1781ZM35.7763 46.3402C39.1717 49.7516 39.5292 50.599 38.0233 51.6675C36.7384 52.5797 36.4119 52.4004 32.7328 48.7636L29.4024 45.4716L30.7112 44.155L32.0201 42.8384L32.5079 43.1926C32.7763 43.3873 34.2469 44.8038 35.7763 46.3402ZM120.284 44.1576L121.478 45.4968L118.173 48.7762C114.606 52.3156 114.239 52.5329 113.134 51.7613C111.481 50.6078 111.796 49.8843 115.607 46.0703C119.414 42.2608 118.812 42.5072 120.284 44.1576ZM78.2179 57.7386C85.9159 60.5783 84.7391 71.6873 76.602 72.9935C72.5644 73.6416 68.6144 70.8126 67.7658 66.6649C66.5414 60.6801 72.4691 55.6176 78.2179 57.7386ZM26.8521 65.0009C19.0225 73.4516 21.6017 86.2491 32.047 90.7763C33.863 91.5633 33.748 91.3222 33.3499 93.5086C32.9614 95.6413 33.1421 95.5242 31.1991 94.9021C17.8879 90.6403 13.6764 71.624 23.9269 62.0663L25.2008 60.8783L26.6231 62.2959L28.0452 63.7133L26.8521 65.0009ZM94.3137 68.9665C98.9831 72.3173 100.201 73.275 99.924 73.3766C99.7292 73.448 98.8464 73.7316 97.9622 74.0068C94.5499 75.0687 94.6543 74.9805 81.349 88.0126C75.8004 93.4471 71.2307 97.8635 71.1938 97.8267C71.1569 97.7899 71.0349 96.9987 70.9226 96.0684C69.6824 85.7933 63.941 79.6424 54.1802 78.132C53.139 77.9711 52.0744 77.7972 51.8143 77.7462C51.389 77.6623 51.9202 77.0884 57.1096 72.0259L62.8779 66.3985L63.1919 67.6631C66.7619 82.0416 85.2159 80.8199 87.9613 66.0232C88.2647 64.3886 87.3325 63.9567 94.3137 68.9665ZM33.7743 69.3616C34.8454 70.6722 35.4317 71.813 35.8347 73.3711C36.0072 74.0377 36.7365 76.3892 37.4555 78.5967C38.982 83.2828 39.0094 82.886 36.9867 85.3755C35.5896 87.0953 35.5016 87.1295 33.9996 86.5394C26.3793 83.5456 24.5041 73.4541 30.5379 67.9104L31.4022 67.1162L32.159 67.7134C32.5752 68.042 33.3021 68.7838 33.7743 69.3616ZM120.998 68.5367C125.303 73.0542 125.173 79.6598 120.69 84.0968L119.078 85.6932L118.9 85.1337C118.057 82.4837 116.765 80.1516 115.108 78.2917C113.357 76.3276 117.003 67.1368 119.532 67.1368C119.605 67.1368 120.264 67.7668 120.998 68.5367ZM105.982 78.0659C119.377 81.4806 116.288 101.503 102.501 100.628C88.8697 99.7624 87.9963 80.6108 101.461 77.8159C102.475 77.6053 104.646 77.7254 105.982 78.0659ZM101.81 82.5917C96.6084 83.69 94.6965 90.4081 98.56 94.0102C104.07 99.1474 112.54 92.964 109.273 86.189C108.023 83.5965 104.681 81.9856 101.81 82.5917ZM56.0698 83.161C66.5854 86.4944 69.6675 99.1784 61.8464 106.934C52.6777 116.026 36.842 108.782 37.6908 95.8841C38.2843 86.8646 47.54 80.4574 56.0698 83.161ZM104.626 87.6694C106.027 88.9173 105.12 91.2666 103.236 91.2666C102.61 91.2666 102.342 91.1454 101.82 90.6256C99.9131 88.7245 102.614 85.8779 104.626 87.6694ZM87.4826 92.4919C88.0029 95.1034 89.4097 97.943 91.1253 99.844L91.8058 100.598L87.7915 100.649C85.5838 100.677 81.9967 100.677 79.8204 100.649L75.8636 100.598L81.3807 94.7813L86.898 88.9646L87.0401 89.9741C87.1182 90.5295 87.3173 91.6625 87.4826 92.4919ZM49.7488 90.4364C43.5162 92.6776 43.8221 101.446 50.1958 103.25C56.744 105.103 61.558 96.8312 56.7312 92.0201C55.0721 90.3664 51.9269 89.6531 49.7488 90.4364ZM52.9554 94.9458C54.8951 95.9457 54.1229 98.8072 51.9133 98.8072C50.6775 98.8072 49.923 98.072 49.923 96.8677C49.923 95.1626 51.4716 94.181 52.9554 94.9458ZM100.533 105.613C100.908 106.026 101.217 120.196 100.897 122.319C100.656 123.926 99.2477 124.825 97.9883 124.176C96.8193 123.573 96.8274 123.644 96.8274 114.099V105.43L97.3475 105.352C98.9201 105.114 100.173 105.217 100.533 105.613ZM76.5904 112.663V119.921H75.5502H74.51V112.663V105.405H75.5502H76.5904V112.663ZM85.2904 114.262V123.119L84.7385 123.735C84.2648 124.264 84.0618 124.351 83.3046 124.351C82.5473 124.351 82.3443 124.264 81.8706 123.735L81.3187 123.119V114.262V105.405H83.3046H85.2904V114.262ZM92.0991 112.663V119.921H91.0589H90.0187V112.663V105.405H91.0589H92.0991V112.663ZM69.7817 114.38C69.7817 124.148 69.7184 124.445 67.6306 124.445C65.9049 124.445 65.6428 123.346 65.6975 116.339C65.7498 109.61 65.7372 109.666 67.6168 107.875C68.2865 107.236 68.9717 106.505 69.1396 106.25C69.729 105.353 69.7817 106.023 69.7817 114.38ZM60.8926 116.622V119.921H59.8524H58.8122L58.8148 117.611C58.818 114.733 59.434 113.433 60.8453 113.326C60.8712 113.324 60.8926 114.807 60.8926 116.622ZM54.2388 119.333C54.1456 123.569 54.0508 123.893 52.799 124.267C50.671 124.903 50.1122 123.823 50.1122 119.078V115.585H52.2168H54.3213L54.2388 119.333Z" fill="#E63728"/>
</svg>
