<svg width="50" height="50" viewBox="0 0 50 50" fill="none" xmlns="http://www.w3.org/2000/svg">
<path fill-rule="evenodd" clip-rule="evenodd" d="M37.5486 6.63262V13.2659L41.7314 11.1543L45.9143 9.04264V4.52167V0H41.7314H37.5486V6.63262ZM10.1857 16.8144L1.99428 20.9254V33.3938C1.99428 44.081 1.83812 45.9222 0.899766 46.2826C0.243057 46.5343 -0.105514 47.3311 0.0283372 48.2744L0.251423 49.8457H25H49.7486L49.9717 48.2744C50.1055 47.3311 49.7569 46.5343 49.1002 46.2826C48.1479 45.9166 48.0057 43.6983 48.0057 29.1991V12.536L41.0468 16.028C37.2195 17.9486 33.9255 19.52 33.7268 19.52C33.5281 19.52 33.3657 17.9486 33.3657 16.028V12.536L26.4068 16.028C22.5795 17.9486 19.3022 19.52 19.1231 19.52C18.9446 19.52 18.7041 17.9863 18.5877 16.1117L18.3771 12.7033L10.1857 16.8144ZM10.36 27.1886C10.36 29.0479 10.1278 29.28 8.26857 29.28C6.40929 29.28 6.17714 29.0479 6.17714 27.1886C6.17714 25.3293 6.40929 25.0971 8.26857 25.0971C10.1278 25.0971 10.36 25.3293 10.36 27.1886ZM18.7257 27.1886C18.7257 29.0479 18.4936 29.28 16.6343 29.28C14.775 29.28 14.5429 29.0479 14.5429 27.1886C14.5429 25.3293 14.775 25.0971 16.6343 25.0971C18.4936 25.0971 18.7257 25.3293 18.7257 27.1886ZM27.0914 27.1886C27.0914 29.0479 26.8593 29.28 25 29.28C23.1407 29.28 22.9086 29.0479 22.9086 27.1886C22.9086 25.3293 23.1407 25.0971 25 25.0971C26.8593 25.0971 27.0914 25.3293 27.0914 27.1886ZM35.4571 27.1886C35.4571 29.0479 35.225 29.28 33.3657 29.28C31.5064 29.28 31.2743 29.0479 31.2743 27.1886C31.2743 25.3293 31.5064 25.0971 33.3657 25.0971C35.225 25.0971 35.4571 25.3293 35.4571 27.1886ZM43.8229 27.1886C43.8229 29.0479 43.5907 29.28 41.7314 29.28C39.8722 29.28 39.64 29.0479 39.64 27.1886C39.64 25.3293 39.8722 25.0971 41.7314 25.0971C43.5907 25.0971 43.8229 25.3293 43.8229 27.1886ZM10.36 35.5543C10.36 37.4136 10.1278 37.6457 8.26857 37.6457C6.40929 37.6457 6.17714 37.4136 6.17714 35.5543C6.17714 33.695 6.40929 33.4629 8.26857 33.4629C10.1278 33.4629 10.36 33.695 10.36 35.5543ZM18.7257 35.5543C18.7257 37.4136 18.4936 37.6457 16.6343 37.6457C14.775 37.6457 14.5429 37.4136 14.5429 35.5543C14.5429 33.695 14.775 33.4629 16.6343 33.4629C18.4936 33.4629 18.7257 33.695 18.7257 35.5543ZM27.0914 35.5543C27.0914 37.4136 26.8593 37.6457 25 37.6457C23.1407 37.6457 22.9086 37.4136 22.9086 35.5543C22.9086 33.695 23.1407 33.4629 25 33.4629C26.8593 33.4629 27.0914 33.695 27.0914 35.5543ZM35.4571 35.5543C35.4571 37.4136 35.225 37.6457 33.3657 37.6457C31.5064 37.6457 31.2743 37.4136 31.2743 35.5543C31.2743 33.695 31.5064 33.4629 33.3657 33.4629C35.225 33.4629 35.4571 33.695 35.4571 35.5543ZM43.8229 35.5543C43.8229 37.4136 43.5907 37.6457 41.7314 37.6457C39.8722 37.6457 39.64 37.4136 39.64 35.5543C39.64 33.695 39.8722 33.4629 41.7314 33.4629C43.5907 33.4629 43.8229 33.695 43.8229 35.5543ZM10.36 43.92C10.36 45.7793 10.1278 46.0114 8.26857 46.0114C6.40929 46.0114 6.17714 45.7793 6.17714 43.92C6.17714 42.0607 6.40929 41.8286 8.26857 41.8286C10.1278 41.8286 10.36 42.0607 10.36 43.92ZM18.7257 43.92C18.7257 45.7793 18.4936 46.0114 16.6343 46.0114C14.775 46.0114 14.5429 45.7793 14.5429 43.92C14.5429 42.0607 14.775 41.8286 16.6343 41.8286C18.4936 41.8286 18.7257 42.0607 18.7257 43.92ZM27.0914 43.92C27.0914 45.7793 26.8593 46.0114 25 46.0114C23.1407 46.0114 22.9086 45.7793 22.9086 43.92C22.9086 42.0607 23.1407 41.8286 25 41.8286C26.8593 41.8286 27.0914 42.0607 27.0914 43.92ZM35.4571 43.92C35.4571 45.7793 35.225 46.0114 33.3657 46.0114C31.5064 46.0114 31.2743 45.7793 31.2743 43.92C31.2743 42.0607 31.5064 41.8286 33.3657 41.8286C35.225 41.8286 35.4571 42.0607 35.4571 43.92ZM43.8229 43.92C43.8229 45.7793 43.5907 46.0114 41.7314 46.0114C39.8722 46.0114 39.64 45.7793 39.64 43.92C39.64 42.0607 39.8722 41.8286 41.7314 41.8286C43.5907 41.8286 43.8229 42.0607 43.8229 43.92Z" fill="#27AE60"/>
</svg>
