<svg width="50" height="68" viewBox="0 0 50 68" fill="none" xmlns="http://www.w3.org/2000/svg">
<path fill-rule="evenodd" clip-rule="evenodd" d="M10.3067 1.52143C8.46525 2.35859 5.77914 4.38549 4.33792 6.02639C2.89754 7.6673 1.25914 10.4027 0.697689 12.1038C0.13624 13.8048 -0.144485 17.0607 0.0744139 19.3391C0.293312 21.6175 1.06029 24.0688 1.77798 24.7865C2.52658 25.5351 3.6854 25.8609 4.49583 25.5501C5.68975 25.0915 5.81925 24.2911 5.33299 20.3985C4.8601 16.6121 5.07566 15.1332 6.54195 12.1046C7.85617 9.38841 9.26147 7.96557 11.8816 6.69729C13.8366 5.75068 16.3272 4.97618 17.4159 4.97618C18.5045 4.97618 20.9316 5.71977 22.8098 6.62962C24.688 7.53863 26.9388 9.49118 27.811 10.9683C28.8554 12.7354 29.0776 13.7605 28.4619 13.9661C27.9472 14.1373 26.5561 15.0405 25.3714 15.9721C24.1867 16.9036 22.4764 19.1202 21.5699 20.8965C20.6634 22.6727 19.9223 25.5652 19.9223 27.3239C19.9223 29.0834 20.7687 32.1998 21.8022 34.2501C22.8791 36.3865 25.0197 38.8403 26.8151 39.9983L29.9482 42.0177V52.3552C29.9482 61.6784 30.1279 62.935 31.7763 65.1649C32.7814 66.5251 34.2151 67.638 34.9612 67.638C35.7073 67.638 37.141 66.5251 38.1461 65.1649C39.1512 63.8056 39.9741 62.0009 39.9741 61.1546C39.9741 60.3091 39.5388 59.182 39.0066 58.6498C38.2747 57.9179 38.299 57.3706 39.1094 56.394C39.9641 55.3646 39.9699 54.8541 39.1386 53.8524C38.309 52.8523 38.309 52.346 39.1386 51.3459C39.9699 50.3442 39.9641 49.8337 39.1094 48.8044C38.299 47.8277 38.2747 47.2804 39.0066 46.5485C39.5388 46.0163 39.9741 44.779 39.9741 43.7998C39.9741 42.6568 41.0978 41.2933 43.1072 39.9983C44.9027 38.8403 47.0432 36.3865 48.1201 34.2501C49.1536 32.1998 50 29.1778 50 27.5344C50 25.891 49.1536 22.8724 48.1201 20.8254C47.0866 18.7785 44.9244 16.2269 43.3161 15.155L40.3919 13.2049L39.9741 19.1854C39.6499 23.8282 39.1938 25.4307 37.9347 26.3497C37.0424 27.0014 35.6329 27.5344 34.8016 27.5344C33.9703 27.5344 32.5148 26.7591 31.5682 25.8125C30.6208 24.865 29.9624 23.2826 30.1061 22.2959C30.2674 21.1805 31.1572 20.3175 32.4547 20.015C33.845 19.6917 34.6403 18.8545 34.8333 17.5111C34.9921 16.4015 34.693 14.0605 34.1683 12.3093C33.6444 10.5589 32.0127 7.75753 30.5439 6.08404C29.0751 4.41139 26.3665 2.35859 24.525 1.52143C22.6828 0.684267 19.4837 0 17.4159 0C15.348 0 12.1489 0.684267 10.3067 1.52143ZM14.317 19.3884C13.3721 20.4227 11.9902 22.4714 11.2474 23.9418C10.5047 25.4131 9.89644 28.1285 9.89644 29.9774C9.89644 31.8255 10.6843 34.9594 11.6468 36.9404L13.3963 40.5422L7.89628 49.2864C3.70295 55.952 2.39374 58.7642 2.38622 61.1212C2.38037 63.1681 2.8566 64.4815 3.79485 65.007C4.69468 65.51 5.99303 65.5042 7.34485 64.9903C8.51621 64.5442 10.0803 63.6326 10.8197 62.9634C11.6393 62.2215 12.0094 60.9415 11.7679 59.6799C11.4471 58.0023 11.7086 57.6121 13.1565 57.6121C14.6429 57.6121 14.8534 57.2629 14.4173 55.5234C13.9761 53.7655 14.1867 53.4346 15.7449 53.4346C17.3031 53.4346 17.5136 53.1038 17.0725 51.3459C16.6514 49.6657 16.8594 49.2572 18.1394 49.2572C19.0142 49.2572 20.3459 48.3173 21.0987 47.1685C21.8515 46.0197 23.0354 45.0797 23.7305 45.0797C24.49 45.0797 23.7965 44.0287 21.991 42.4438C20.3392 40.9934 18.2514 38.3632 17.3507 36.5978C16.4509 34.8324 15.4926 31.7762 15.2227 29.8053C14.9528 27.8352 15.1066 24.9202 15.5652 23.3277C16.0239 21.7353 16.6681 19.7744 16.9973 18.9707C17.3256 18.1669 17.2437 17.5085 16.8151 17.5085C16.3865 17.5085 15.2628 18.3541 14.317 19.3884Z" fill="#27AE60"/>
</svg>
