<svg width="50" height="53" viewBox="0 0 50 53" fill="none" xmlns="http://www.w3.org/2000/svg">
<path fill-rule="evenodd" clip-rule="evenodd" d="M16.087 0.869565C15.6087 1.34783 15.2174 2.3029 15.2174 2.99203C15.2174 3.68188 16.6848 7.40725 18.4783 11.271C20.2717 15.1355 21.7391 18.4855 21.7391 18.7159C21.7391 18.9464 20.5167 17.9529 19.0217 16.5087C17.5275 15.0645 13.6196 12.2268 10.3391 10.2022C7.05797 8.17826 3.75507 6.52174 3 6.52174C2.24493 6.52174 1.23551 6.99275 0.757971 7.56884C0.27971 8.14493 -0.00434759 9.33913 0.125363 10.2232C0.289855 11.3399 2.20507 12.9783 6.40725 15.5971C9.73188 17.6688 13.4754 20.3877 14.7268 21.6384L17.0015 23.913H12.6442C8.29928 23.913 8.27681 23.9239 4.1442 28.1007C1.85 30.4188 0 32.942 0 33.7529C0 34.5587 0.391304 35.6087 0.869565 36.087C1.34783 36.5652 2.42101 36.9565 3.25507 36.9565C4.10217 36.9565 6.19493 35.4928 8.00145 33.6355C11.1101 30.4391 11.3638 30.3261 14.7341 30.6362C17.0304 30.8471 18.7717 31.4935 19.7906 32.5116C20.8594 33.5812 21.3442 34.9667 21.3442 36.9565C21.3442 38.8993 20.8594 40.3319 19.8674 41.3239C19.0558 42.1355 17.1971 42.9942 15.7362 43.2312C13.4688 43.5985 12.7051 43.3312 10.5007 41.3964C8.74565 39.8543 7.16957 39.1304 5.57101 39.1304C4.27826 39.1304 2.49638 39.6384 1.61087 40.2587C0.724637 40.879 0 41.8058 0 42.3174C0 42.8297 2.0913 45.2565 4.6471 47.7109L9.29493 52.1739H29.6471H50V43.4783V34.7826H45.7333H41.4674L39.208 29.1667C37.0652 23.8399 36.9493 23.0449 36.9529 13.7319C36.9551 7.05652 36.6783 3.63478 36.087 3.04348C35.6087 2.56522 34.5326 2.17391 33.6957 2.17391C32.8587 2.17391 31.7826 2.56522 31.3043 3.04348C30.7261 3.62174 30.4304 6.83551 30.4217 12.6449L30.4087 21.3768L26.1181 11.9565C23.758 6.77536 21.4783 1.96594 21.0522 1.26812C20.6261 0.57029 19.5304 0 18.6174 0C17.7036 0 16.5652 0.391304 16.087 0.869565Z" fill="#27AE60"/>
</svg>
